<?xml version="1.0" standalone="no"?>
<!DOCTYPE svg PUBLIC "-//W3C//DTD SVG 20010904//EN"
 "http://www.w3.org/TR/2001/REC-SVG-20010904/DTD/svg10.dtd">
<svg version="1.0" xmlns="http://www.w3.org/2000/svg"
 width="500.000000pt" height="500.000000pt" viewBox="0 0 500.000000 500.000000"
 preserveAspectRatio="xMidYMid meet">

<g transform="translate(0.000000,500.000000) scale(0.100000,-0.100000)"
fill="#000000" stroke="none">
<path d="M2620 4471 c-5 -11 -10 -28 -10 -38 0 -10 -31 -50 -70 -88 l-70 -69
0 -324 0 -323 -42 3 -43 3 -3 243 c-2 233 -2 243 19 271 21 29 20 71 -2 71 -6
0 -37 25 -70 57 -44 42 -59 63 -59 83 0 55 -66 69 -84 18 -12 -34 6 -58 43
-58 18 0 40 -14 69 -43 37 -38 41 -46 36 -78 -4 -25 -1 -39 10 -48 14 -12 16
-47 16 -268 l0 -254 -52 3 -53 3 -3 136 c-2 125 -1 137 18 154 11 10 20 26 20
36 0 20 -36 49 -61 49 -23 0 -49 32 -49 61 0 31 -17 49 -45 49 -27 0 -45 -18
-45 -45 0 -28 19 -45 50 -45 35 0 60 -29 60 -69 0 -19 6 -34 15 -37 12 -5 15
-31 15 -150 l0 -144 -166 -2 -167 -3 -100 -173 -100 -174 -119 119 c-79 79
-118 125 -118 140 0 12 -7 29 -16 38 -16 15 -16 19 -1 51 9 19 23 34 32 34 20
0 47 43 39 64 -10 25 -41 39 -63 27 -22 -12 -32 -43 -21 -62 9 -13 -20 -80
-47 -111 -8 -9 -13 -29 -11 -45 2 -23 8 -29 33 -31 23 -3 59 -32 153 -125 67
-67 122 -124 122 -127 0 -4 -7 -15 -15 -26 -13 -18 -25 -8 -220 186 -163 163
-205 210 -205 231 0 15 -7 32 -14 39 -13 10 -12 17 6 55 13 27 30 46 45 49 32
9 42 52 17 77 -36 36 -89 -7 -70 -56 3 -9 -9 -43 -27 -77 -47 -89 -50 -94 -68
-90 -9 2 -24 -4 -33 -14 -24 -24 -164 -11 -184 17 -25 36 -82 18 -82 -26 0
-42 47 -60 79 -31 25 22 156 5 183 -24 12 -12 28 -20 38 -17 13 3 81 -59 240
-218 122 -122 221 -227 219 -232 -2 -5 -48 -87 -103 -181 l-99 -172 -253 0
c-177 0 -255 3 -260 11 -9 16 65 77 86 72 21 -6 50 22 50 47 0 18 -24 50 -38
50 -20 0 -52 -34 -52 -54 0 -25 -69 -96 -94 -96 -22 0 -39 -28 -32 -55 8 -32
50 -44 75 -21 15 14 51 16 259 16 l241 0 -26 -45 -25 -45 -269 0 c-176 0 -269
4 -269 10 0 6 -11 15 -24 21 -28 13 -66 -3 -66 -27 0 -24 -88 -73 -127 -72
-38 1 -53 -13 -53 -50 0 -30 39 -49 69 -33 11 7 21 20 21 31 0 11 18 31 44 50
38 26 48 29 69 19 26 -12 67 2 67 21 0 6 104 10 273 10 l272 0 28 -45 c15 -25
27 -48 27 -50 0 -3 -105 -5 -234 -5 -195 0 -236 2 -246 15 -7 8 -23 15 -35 15
-53 0 -59 -74 -7 -86 34 -8 82 -52 75 -69 -5 -14 30 -55 47 -55 5 0 19 9 30
20 11 11 20 25 20 30 0 19 -41 51 -59 45 -20 -6 -67 38 -56 54 4 7 85 11 243
11 l237 0 160 -276 c88 -152 164 -285 169 -296 8 -16 -13 -42 -145 -174 -108
-108 -161 -154 -176 -154 -18 0 -23 6 -23 25 0 14 5 34 12 44 22 36 -17 76
-59 60 -32 -12 -30 -55 3 -86 23 -21 26 -29 20 -65 -7 -46 5 -68 38 -68 28 0
46 18 46 45 0 13 55 75 155 175 85 85 156 152 158 150 3 -3 12 -20 22 -39 l17
-34 -179 -181 c-176 -178 -198 -199 -218 -202 -5 0 -15 -2 -22 -2 -7 -1 -17
-11 -23 -22 -15 -29 2 -56 46 -70 21 -7 39 -21 44 -36 19 -48 90 -39 90 11 0
33 -24 48 -64 41 -35 -7 -35 -7 -33 29 2 32 23 55 187 220 101 101 187 182
192 179 4 -3 15 -19 24 -36 l16 -31 -73 -73 c-56 -57 -80 -74 -101 -74 -20 0
-32 -7 -40 -25 -13 -28 0 -50 35 -61 38 -11 87 -65 87 -96 0 -52 73 -63 86
-12 8 29 -21 66 -47 62 -10 -2 -31 10 -48 26 -49 47 -42 70 43 155 l74 74 16
-32 17 -31 379 0 380 0 0 -188 c0 -184 -1 -189 -23 -210 -27 -26 -82 -30 -91
-7 -3 9 -18 15 -36 15 -42 0 -62 -40 -35 -70 23 -25 36 -25 68 0 31 25 66 25
106 3 24 -14 35 -15 48 -7 24 15 30 72 9 80 -14 5 -16 33 -16 196 l0 189 23
-3 c21 -3 22 -7 24 -128 1 -113 0 -127 -19 -147 -23 -25 -21 -51 7 -68 31 -20
65 -2 65 33 0 16 -7 35 -15 42 -12 10 -15 39 -15 141 l0 129 30 0 30 0 0 -274
c0 -231 -2 -275 -15 -286 -18 -15 -20 -51 -3 -68 20 -20 45 -14 95 22 35 25
55 33 74 29 32 -6 52 16 47 54 -2 24 -8 29 -36 31 -29 3 -34 -1 -47 -32 -20
-47 -47 -62 -69 -37 -14 15 -16 52 -16 289 l0 272 109 0 109 0 27 48 c15 26
52 89 82 141 l55 94 234 -234 c164 -163 234 -240 234 -256 0 -12 5 -25 11 -28
18 -12 -31 -55 -63 -55 -20 0 -32 -7 -39 -24 -24 -53 41 -92 75 -45 8 12 12
27 10 34 -3 7 18 32 45 55 28 24 51 51 51 60 0 22 -36 54 -53 47 -9 -3 -103
84 -251 232 -178 179 -235 241 -230 254 3 9 9 17 13 17 3 0 95 -89 204 -198
123 -123 197 -205 197 -217 0 -11 4 -26 9 -33 12 -20 64 -11 76 13 24 48 68
95 89 95 28 0 46 18 46 45 0 27 -18 45 -47 45 -24 0 -48 -33 -40 -55 3 -7 -7
-27 -21 -44 -24 -27 -31 -30 -63 -25 -31 5 -68 38 -234 204 l-198 198 13 31
c7 17 17 34 22 37 16 10 258 -237 258 -263 0 -22 24 -53 41 -53 19 0 49 21 49
34 0 22 92 76 118 69 41 -10 71 44 40 75 -27 27 -78 7 -78 -30 0 -10 -17 -29
-38 -43 -67 -44 -90 -33 -240 119 l-130 131 83 145 84 145 113 -3 c271 -6 407
-15 412 -27 7 -19 43 -24 63 -10 15 11 32 5 125 -41 79 -39 110 -61 120 -81
18 -38 57 -38 78 0 14 27 14 29 -8 47 -16 14 -29 17 -45 11 -17 -6 -48 5 -135
48 -64 32 -115 63 -118 73 -8 27 -51 34 -74 13 -19 -17 -39 -18 -262 -11 -133
3 -244 8 -246 11 -2 2 8 23 22 46 l25 43 318 -3 c303 -2 319 -4 340 -23 25
-24 57 -17 75 15 15 29 58 62 83 63 40 2 44 4 55 24 12 23 0 54 -25 64 -25 9
-55 -12 -55 -37 0 -14 -12 -32 -30 -45 -25 -19 -34 -21 -51 -11 -17 9 -26 7
-49 -9 -26 -20 -37 -20 -334 -15 -168 3 -306 8 -306 11 0 2 10 22 22 43 l22
40 81 -5 c44 -3 131 -8 194 -11 90 -5 120 -10 138 -25 25 -19 58 -17 67 5 3 8
68 61 144 119 113 85 146 105 172 104 17 -1 36 5 41 13 15 24 10 58 -11 69
-30 16 -59 3 -67 -30 -6 -21 -41 -54 -137 -125 -117 -89 -130 -96 -153 -86
-32 15 -39 14 -58 -5 -14 -14 -38 -15 -205 -9 -156 6 -191 10 -203 24 -8 9
-119 198 -247 420 l-232 404 127 127 c83 83 135 128 149 128 11 0 27 1 35 3
10 3 17 -6 20 -25 3 -16 15 -35 27 -43 19 -12 24 -11 44 5 31 25 21 69 -18 78
-48 10 -52 13 -62 38 -19 50 -90 36 -90 -18 0 -14 -43 -65 -124 -145 l-123
-123 -26 44 c-14 25 -27 50 -29 55 -2 6 100 117 226 247 189 195 233 236 256
236 41 0 56 24 42 64 -17 47 -15 122 4 152 32 48 -24 102 -64 62 -17 -17 -15
-53 3 -68 10 -8 15 -30 15 -64 0 -40 -4 -54 -20 -64 -12 -7 -20 -23 -20 -40 0
-22 -41 -68 -228 -255 l-227 -227 -75 0 -75 0 125 125 c97 97 131 125 151 125
40 0 55 24 41 64 -18 48 -16 181 3 196 32 26 12 80 -30 80 -42 0 -62 -54 -30
-80 11 -9 15 -33 15 -89 0 -65 -3 -78 -20 -89 -12 -7 -20 -23 -20 -41 0 -23
-24 -51 -135 -160 l-135 -131 -205 0 -205 0 0 313 0 313 73 71 c40 40 83 73
96 75 31 4 46 28 37 61 -5 22 -12 27 -36 27 -19 0 -33 -7 -40 -19z m-1185
-1081 l208 -209 -18 -27 -17 -27 -219 219 c-120 120 -219 226 -219 235 0 11 9
16 28 17 25 0 60 -31 237 -208z m1670 90 c473 -818 498 -863 489 -879 -6 -9
-131 -226 -279 -483 l-270 -468 -560 0 -560 0 -42 73 c-72 126 -484 841 -500
868 -15 25 -12 32 143 300 87 151 207 360 267 464 60 105 115 200 123 213 l15
22 557 -2 557 -3 60 -105z"/>
<path d="M2337 3103 c-13 -12 16 -33 47 -33 l31 1 -24 19 c-24 21 -43 25 -54
13z"/>
<path d="M2599 3083 c-13 -15 -16 -22 -7 -14 9 7 21 10 27 7 11 -7 61 14 61
26 0 20 -58 7 -81 -19z"/>
<path d="M1833 3055 c-35 -8 -67 -17 -73 -20 -18 -11 -10 -33 20 -55 17 -12
30 -30 30 -39 0 -10 7 -24 15 -31 8 -6 17 -21 21 -33 4 -12 13 -27 20 -35 8
-7 14 -22 14 -32 0 -10 5 -22 10 -25 6 -3 10 -17 10 -30 0 -13 5 -27 10 -30 6
-3 10 -21 10 -40 0 -20 6 -35 15 -39 8 -3 15 -13 15 -22 0 -18 67 -84 86 -84
6 0 17 -7 25 -16 7 -8 22 -14 34 -12 18 4 20 1 17 -25 -3 -16 -11 -31 -19 -34
-26 -10 -56 -83 -48 -117 4 -17 8 -51 9 -76 1 -25 7 -55 14 -67 6 -12 12 -30
12 -40 0 -11 11 -23 29 -29 29 -11 61 -62 61 -96 0 -11 -9 -31 -20 -45 -31
-39 -43 -94 -25 -112 26 -26 44 6 50 83 7 82 18 106 49 106 13 0 29 7 36 15 7
8 27 15 46 15 26 0 38 7 57 33 31 41 41 74 66 219 22 121 38 171 52 162 5 -3
9 -25 9 -50 0 -59 18 -57 22 4 6 100 36 34 64 -143 25 -157 65 -233 118 -223
17 3 31 -1 42 -13 10 -11 27 -19 39 -19 34 0 44 -19 52 -105 6 -58 13 -81 26
-89 43 -27 44 50 1 114 -13 19 -24 42 -24 52 0 29 34 78 63 91 17 7 27 20 27
33 0 11 6 29 14 40 10 13 13 33 9 60 -3 26 -1 44 6 48 28 17 -7 135 -44 149
-9 4 -15 19 -15 36 0 23 4 28 18 24 10 -2 24 3 31 11 8 9 19 16 25 16 18 0 82
62 90 88 4 12 12 22 17 22 5 0 9 15 9 34 0 19 5 38 10 41 6 3 10 17 10 30 0
13 5 27 10 30 6 3 10 15 10 25 0 10 6 25 13 32 18 20 35 49 53 87 9 19 27 43
40 53 40 32 31 53 -28 67 -144 33 -264 20 -382 -42 -78 -41 -218 -180 -268
-267 -21 -35 -38 -57 -38 -47 0 9 -4 17 -10 17 -5 0 -10 -8 -10 -17 0 -12 -5
-8 -15 11 -33 62 -107 156 -169 213 -143 131 -298 176 -473 138z m1200 -12
c-20 -4 -21 -7 -12 -25 11 -20 10 -21 -32 -14 -56 9 -71 23 -33 31 16 4 34 8
39 10 6 2 21 3 35 3 23 -1 23 -1 3 -5z m17 -64 c0 -5 4 -8 9 -5 5 3 11 -1 15
-9 3 -8 0 -17 -6 -21 -7 -4 -8 -3 -4 4 8 14 4 15 -18 6 -15 -6 -15 -8 1 -19
16 -12 16 -13 -8 -11 -52 6 -68 39 -26 56 30 12 37 12 37 -1z m-1054 -116
c-11 -11 -19 6 -11 24 8 17 8 17 12 0 3 -10 2 -21 -1 -24z m1029 10 c1 -14 -3
-19 -12 -16 -16 6 -18 46 -1 41 6 -2 12 -14 13 -25z m-326 0 c-18 -21 -19 -76
-1 -61 17 15 15 -3 -4 -30 -17 -25 -13 -29 8 -9 11 12 16 12 28 -1 13 -14 12
-15 -3 -9 -9 3 -17 3 -17 -2 0 -5 -13 -14 -30 -21 -16 -7 -51 -27 -77 -46 -26
-18 -49 -31 -51 -29 -13 12 134 225 155 225 3 0 -1 -7 -8 -17z m-324 -91 c-2
-7 -1 -11 4 -7 10 6 43 -43 61 -89 11 -29 10 -29 -12 -12 -13 9 -40 26 -60 38
-34 21 -47 47 -20 41 6 -2 9 3 6 11 -3 8 0 17 6 21 8 5 4 15 -12 34 l-23 26
28 -25 c15 -13 25 -30 22 -38z m-358 16 c-3 -8 -6 -5 -6 6 -1 11 2 17 5 13 3
-3 4 -12 1 -19z m326 -23 c-7 -21 -12 -19 -10 4 0 11 5 18 9 15 4 -3 5 -11 1
-19z m-213 -25 c0 -15 -18 -21 -27 -8 -16 26 -12 38 8 28 10 -6 19 -15 19 -20z
m768 5 c-8 -17 -15 -22 -21 -16 -7 7 -6 15 3 26 20 24 31 18 18 -10z m-144
-42 c-3 -15 -7 -30 -10 -35 -3 -4 3 -8 13 -9 14 0 13 -2 -6 -10 -19 -8 -21
-12 -11 -24 7 -9 11 -18 8 -21 -9 -8 -177 19 -172 28 7 11 136 85 159 91 11 2
21 5 22 6 1 0 -1 -11 -3 -26z m-628 -24 c3 -6 1 -16 -6 -22 -10 -9 -11 -9 -5
2 4 8 2 17 -6 22 -9 6 -10 9 -2 9 6 0 15 -5 19 -11z m756 -11 c-7 -7 -12 -8
-12 -2 0 6 3 14 7 17 3 4 9 5 12 2 2 -3 -1 -11 -7 -17z m-484 -18 l47 -30 -31
0 c-17 0 -47 -3 -65 -6 -28 -4 -31 -3 -16 6 12 8 15 18 11 36 -8 31 -4 30 54
-6z m-248 -41 c0 -11 -5 -17 -10 -14 -6 4 -8 10 -5 15 3 4 -1 11 -7 13 -8 3
-6 6 5 6 11 1 17 -6 17 -20z m277 -15 c-3 -3 -12 -4 -19 -1 -8 3 -5 6 6 6 11
1 17 -2 13 -5z m-92 -19 c-27 -8 -51 -12 -54 -10 -2 3 2 7 10 9 8 2 21 7 29 9
8 3 26 5 40 5 15 0 5 -5 -25 -13z m386 -7 c3 -5 10 -10 15 -10 13 0 41 -17 28
-18 -6 0 -14 3 -18 7 -3 4 -14 8 -24 10 -9 1 -37 10 -62 18 l-45 15 50 -6 c28
-3 53 -10 56 -16z m-289 -8 c-18 -11 -39 -17 -45 -14 -7 4 -9 4 -5 -1 9 -10
-61 -67 -73 -59 -5 3 -9 11 -9 17 0 7 4 6 10 -3 7 -12 9 -10 7 8 -2 26 -1 26
-22 6 -15 -16 -16 -16 -13 2 3 21 42 41 103 54 72 14 83 12 47 -10z m240 -6
c25 -8 49 -23 53 -32 5 -14 4 -15 -6 -4 -7 6 -18 12 -23 12 -6 0 -5 -4 3 -9 7
-5 11 -14 7 -20 -9 -14 -41 -9 -63 11 -10 9 -38 28 -63 43 l-45 26 45 -6 c25
-4 66 -13 92 -21z m183 6 c-3 -5 -10 -10 -16 -10 -5 0 -9 5 -9 10 0 6 7 10 16
10 8 0 12 -4 9 -10z m-438 -49 c-19 -22 -40 -49 -47 -60 -9 -17 -13 -19 -24
-9 -15 14 -11 32 5 22 5 -3 8 0 7 7 -3 10 75 79 89 79 3 0 -11 -18 -30 -39z
m214 -17 c15 -16 17 -23 7 -26 -7 -3 -31 15 -53 40 l-40 46 33 -19 c18 -11 42
-30 53 -41z m-47 -26 c-2 -3 0 -9 6 -13 5 -3 15 -16 22 -28 10 -19 9 -20 -4
-10 -8 7 -17 11 -20 8 -7 -8 -23 15 -36 50 -5 17 -13 39 -17 50 -4 13 4 7 23
-15 17 -19 28 -38 26 -42z m-133 15 c-10 -27 -22 -57 -26 -68 -4 -11 -7 -23
-7 -27 1 -5 -3 -8 -9 -8 -5 0 -8 -4 -4 -9 3 -5 1 -12 -4 -15 -5 -4 -12 -2 -15
3 -4 5 -2 12 4 16 5 3 10 12 10 18 0 8 -3 8 -8 2 -4 -5 -15 -17 -26 -25 -15
-12 -14 -6 8 37 23 45 81 123 92 123 2 0 -5 -21 -15 -47z m446 -105 c-3 -8 -6
-5 -6 6 -1 11 2 17 5 13 3 -3 4 -12 1 -19z m-667 -79 c0 -18 -2 -19 -15 -9
-15 12 -12 30 6 30 5 0 9 -10 9 -21z m45 -29 c3 -6 -1 -7 -9 -4 -18 7 -21 14
-7 14 6 0 13 -4 16 -10z m-39 -109 c-4 -5 -1 -11 5 -13 7 -2 6 -8 -3 -16 -12
-10 -14 -8 -12 11 3 27 3 27 10 27 3 0 3 -4 0 -9z m538 0 c3 -5 -1 -11 -9 -14
-9 -4 -12 -1 -8 9 6 16 10 17 17 5z"/>
<path d="M2421 3040 c14 -31 19 -36 19 -24 0 6 -7 19 -16 30 -14 18 -14 18 -3
-6z"/>
</g>
</svg>
